<svg width="242" height="218" viewBox="0 0 242 218" fill="none" xmlns="http://www.w3.org/2000/svg">
<path d="M241.667 84.5712V205.417C241.667 208.621 240.394 211.695 238.128 213.961C235.861 216.227 232.788 217.5 229.583 217.5H132.917V84.5712H241.667ZM108.75 0V132.905H0V12.0833C0 8.87863 1.27306 5.80519 3.53913 3.53913C5.80519 1.27306 8.87863 0 12.0833 0H108.75Z" fill="#005684"/>
<path d="M238.129 3.53913C235.863 1.27306 232.789 0 229.585 0H132.918V60.4046H241.668V12.0833C241.668 8.87863 240.395 5.80519 238.129 3.53913Z" fill="#F0B100"/>
<path d="M108.75 217.5V157.071H0V205.417C0 208.621 1.27306 211.695 3.53913 213.961C5.80519 216.227 8.87863 217.5 12.0833 217.5H108.75Z" fill="#F0B100"/>
</svg>
